<svg width="222" height="187" viewBox="0 0 222 187" fill="none" xmlns="http://www.w3.org/2000/svg">
<mask id="mask0_128_1675" style="mask-type:alpha" maskUnits="userSpaceOnUse" x="0" y="0" width="222" height="187">
<path opacity="0.834943" d="M162.754 0.195739C179.317 2.10575 189.573 17.2898 199.903 28.6855C209.794 39.5964 219.796 51.4814 221.736 65.2613C223.626 78.6938 214.903 91.2299 210.533 104.22C206.82 115.258 205.194 126.966 197.773 136.492C190.565 145.746 178.247 150.492 168.673 157.958C158.313 166.038 151.454 177.855 138.645 182.606C125.508 187.477 109.982 188.437 96.3296 184.787C82.855 181.184 76.0958 167.666 63.3322 162.467C47.5358 156.033 21.1608 164.469 13.2813 150.958C5.04778 136.84 33.1467 122.185 30.6966 106.506C28.2098 90.5914 -2.37128 82.8175 0.147291 66.907C2.46049 52.2939 26.0696 48.2806 41.0234 41.2679C52.9873 35.6574 66.3591 33.8105 79.1692 29.8494C90.8935 26.2239 102.297 22.8453 113.818 18.7581C130.479 12.8474 144.912 -1.86184 162.754 0.195739Z" fill="#00C9BA" fill-opacity="0.7"/>
</mask>
<g mask="url(#mask0_128_1675)">
<rect y="-1" width="250" height="217" rx="10" fill="#F3EED9"/>
</g>
</svg>
