<svg width="236" height="187" viewBox="0 0 236 187" fill="none" xmlns="http://www.w3.org/2000/svg">
<mask id="mask0_128_1669" style="mask-type:alpha" maskUnits="userSpaceOnUse" x="0" y="0" width="236" height="187">
<path d="M135.116 12.0037C150.693 15.4142 165.898 17.6786 180.698 23.4134C199.031 30.5173 222.989 32.9515 232.157 49.6066C241.256 66.1361 231.274 86.4723 225.168 104.198C219.948 119.35 208.605 131.008 199.499 144.404C189.929 158.482 186.388 178.692 170.113 185.184C153.789 191.696 136.244 178.763 118.678 176.642C101.801 174.605 84.5721 178.655 68.6618 172.939C50.1546 166.29 32.2122 156.686 20.6725 141.432C8.13185 124.854 -4.3099 103.748 1.44796 84.0861C7.30592 64.0826 34.5991 58.4223 49.4471 43.1732C61.9348 30.3484 64.4614 7.97658 81.6431 1.72521C98.9183 -4.56014 117.088 8.05645 135.116 12.0037Z" fill="#00C9BA" fill-opacity="0.7"/>
</mask>
<g mask="url(#mask0_128_1669)">
<rect x="-72.251" y="-8.69775" width="407.415" height="195.698" fill="#F3EED9"/>
</g>
</svg>
