<svg width="278" height="283" viewBox="0 0 278 283" fill="none" xmlns="http://www.w3.org/2000/svg">
<mask id="mask0_128_1663" style="mask-type:alpha" maskUnits="userSpaceOnUse" x="38" y="49" width="220" height="189">
<path d="M216.12 95.9988C233.191 114.714 257.214 134.201 257.034 157.098C256.852 180.157 230.283 188.261 215.275 203.36C204.7 214 196.566 226.695 182.248 232.341C167.614 238.111 151.029 238.97 134.09 235.372C115.75 231.477 95.7842 226.062 82.6005 211.176C69.4743 196.356 72.1639 176.305 65.8719 158.347C57.775 135.238 30.6714 110.233 40.5085 91.0403C50.3162 71.9048 84.8552 88.3038 105.481 81.0672C125.894 73.9051 135.719 46.3757 158.895 49.5035C182.145 52.6412 199.118 77.3587 216.12 95.9988Z" fill="#00C9BA" fill-opacity="0.7"/>
</mask>
<g mask="url(#mask0_128_1663)">
<rect width="299.866" height="301.74" rx="10" transform="matrix(0.776489 0.63013 -0.596655 0.802498 123.938 -66.9026)" fill="#F3EED9"/>
</g>
</svg>
