<svg width="222" height="187" fill="none" xmlns="http://www.w3.org/2000/svg"><mask id="mask0_128_1675" style="mask-type:alpha" maskUnits="userSpaceOnUse" x="0" y="0" width="222" height="187"><path opacity=".835" d="M162.754.196c16.563 1.91 26.819 17.094 37.149 28.49 9.891 10.91 19.893 22.795 21.833 36.575 1.89 13.433-6.833 25.969-11.203 38.959-3.713 11.038-5.339 22.746-12.76 32.272-7.208 9.254-19.526 14-29.1 21.466-10.36 8.08-17.219 19.897-30.028 24.648-13.137 4.871-28.663 5.831-42.315 2.181-13.475-3.603-20.234-17.121-32.998-22.32-15.796-6.434-42.171 2.002-50.05-11.509-8.234-14.118 19.865-28.773 17.415-44.452C28.21 90.591-2.371 82.817.147 66.907 2.46 52.294 26.07 48.281 41.023 41.267 52.987 35.658 66.36 33.81 79.17 29.85c11.725-3.625 23.128-7.004 34.649-11.09 16.661-5.912 31.094-20.62 48.936-18.563Z" fill="#00C9BA" fill-opacity=".7"/></mask><g mask="url('#mask0_128_1675')"><rect y="-1" width="250" height="217" rx="10" fill="#F3EED9"/></g></svg>