<svg width="236" height="187" fill="none" xmlns="http://www.w3.org/2000/svg"><mask id="mask0_128_1669" style="mask-type:alpha" maskUnits="userSpaceOnUse" x="0" y="0" width="236" height="187"><path d="M135.116 12.004c15.577 3.41 30.782 5.675 45.582 11.41 18.333 7.103 42.291 9.538 51.459 26.193 9.099 16.53-.883 36.865-6.989 54.591-5.22 15.152-16.563 26.81-25.669 40.206-9.57 14.078-13.111 34.288-29.386 40.78-16.324 6.512-33.869-6.421-51.435-8.542-16.877-2.037-34.106 2.013-50.016-3.703-18.507-6.649-36.45-16.253-47.99-31.507C8.133 124.854-4.31 103.748 1.448 84.086c5.858-20.003 33.151-25.664 48-40.913C61.934 30.348 64.46 7.977 81.642 1.725c17.275-6.285 35.445 6.331 53.473 10.279Z" fill="#00C9BA" fill-opacity=".7"/></mask><g mask="url('#mask0_128_1669')"><path fill="#F3EED9" d="M-72.251-8.698h407.415V187H-72.251z"/></g></svg>