<svg width="278" height="283" fill="none" xmlns="http://www.w3.org/2000/svg"><mask id="mask0_128_1663" style="mask-type:alpha" maskUnits="userSpaceOnUse" x="38" y="49" width="220" height="189"><path d="M216.12 95.999c17.071 18.715 41.094 38.202 40.914 61.099-.182 23.059-26.751 31.163-41.759 46.262-10.575 10.64-18.709 23.335-33.027 28.981-14.634 5.77-31.219 6.629-48.158 3.031-18.34-3.895-38.306-9.31-51.49-24.196-13.126-14.82-10.436-34.871-16.728-52.829-8.097-23.109-35.2-48.114-25.364-67.307 9.808-19.135 44.347-2.736 64.973-9.973 20.413-7.162 30.238-34.691 53.414-31.563 23.25 3.137 40.223 27.855 57.225 46.495Z" fill="#00C9BA" fill-opacity=".7"/></mask><g mask="url('#mask0_128_1663')"><rect width="299.866" height="301.74" rx="10" transform="matrix(.77649 .63013 -.59666 .8025 123.938 -66.903)" fill="#F3EED9"/></g></svg>