<svg width="37" height="36" fill="none" xmlns="http://www.w3.org/2000/svg"><path d="M2.087.53H8.87c1.043 0 1.043.529 1.565 1.588.521 1.058 3.13 12.706 3.13 12.706l4.174 15.882h13.044" stroke="#222"/><path d="M16.174 24.882h14.608L36 10.06" stroke="#222"/><path d="M3.674 2.118c0 .9-.717 1.617-1.587 1.617S.5 3.018.5 2.118 1.217.5 2.087.5s1.587.717 1.587 1.618Z" fill="#222" stroke="#222"/><path d="M22.457 33.353c0 1.193-.951 2.147-2.109 2.147s-2.109-.954-2.109-2.147c0-1.193.951-2.147 2.109-2.147s2.109.954 2.109 2.147ZM31.848 33.353c0 1.193-.951 2.147-2.109 2.147s-2.109-.954-2.109-2.147c0-1.193.951-2.147 2.11-2.147 1.157 0 2.108.954 2.108 2.147Z" stroke="#222"/><mask id="path-6-inside-1_379_900" fill="#fff"><path d="M24 16.32a.459.459 0 0 1-.283-.099c-2.578-2.033-4.354-3.783-5.597-5.51-1.587-2.207-1.948-4.245-1.076-6.057.621-1.294 2.407-2.353 4.494-1.736A4.58 4.58 0 0 1 24 4.692a4.58 4.58 0 0 1 2.463-1.774c2.082-.607 3.872.442 4.494 1.736.872 1.812.51 3.85-1.076 6.057-1.243 1.727-3.02 3.477-5.598 5.51a.459.459 0 0 1-.283.099ZM20.35 3.685a2.704 2.704 0 0 0-1.424.341 2.756 2.756 0 0 0-1.048 1.038c-.718 1.496-.394 3.162.993 5.087a26.677 26.677 0 0 0 5.13 5.1 26.68 26.68 0 0 0 5.128-5.096c1.392-1.93 1.712-3.595.993-5.087-.464-.94-1.855-1.69-3.404-1.247a3.695 3.695 0 0 0-1.352.742 3.76 3.76 0 0 0-.94 1.235.47.47 0 0 1-.428.291.46.46 0 0 1-.43-.291 3.725 3.725 0 0 0-.937-1.237 3.66 3.66 0 0 0-1.353-.74 3.344 3.344 0 0 0-.928-.136Z"/></mask><path d="M24 16.32a.459.459 0 0 1-.283-.099c-2.578-2.033-4.354-3.783-5.597-5.51-1.587-2.207-1.948-4.245-1.076-6.057.621-1.294 2.407-2.353 4.494-1.736A4.58 4.58 0 0 1 24 4.692a4.58 4.58 0 0 1 2.463-1.774c2.082-.607 3.872.442 4.494 1.736.872 1.812.51 3.85-1.076 6.057-1.243 1.727-3.02 3.477-5.598 5.51a.459.459 0 0 1-.283.099ZM20.35 3.685a2.704 2.704 0 0 0-1.424.341 2.756 2.756 0 0 0-1.048 1.038c-.718 1.496-.394 3.162.993 5.087a26.677 26.677 0 0 0 5.13 5.1 26.68 26.68 0 0 0 5.128-5.096c1.392-1.93 1.712-3.595.993-5.087-.464-.94-1.855-1.69-3.404-1.247a3.695 3.695 0 0 0-1.352.742 3.76 3.76 0 0 0-.94 1.235.47.47 0 0 1-.428.291.46.46 0 0 1-.43-.291 3.725 3.725 0 0 0-.937-1.237 3.66 3.66 0 0 0-1.353-.74 3.344 3.344 0 0 0-.928-.136Z" fill="#222"/><path d="m24 16.32-.006 2h.012l-.006-2Zm-.283-.099-1.238 1.57v.002l1.238-1.572Zm-5.597-5.51-1.625 1.167h.001l1.624-1.167Zm-1.076-6.057 1.802.867V5.52l-1.802-.866Zm4.494-1.736-.567 1.918h.004l.563-1.918ZM24 4.692l-1.639 1.146 1.64 2.343 1.638-2.343L24 4.692Zm2.463-1.774-.56-1.92H25.9l.563 1.92Zm4.494 1.736-1.803.866v.001l1.803-.867Zm-1.076 6.057 1.623 1.168v-.001l-1.623-1.167Zm-5.598 5.51 1.237 1.572.001-.001-1.238-1.57ZM20.35 3.685l-.079 1.998.034.002h.035l.01-2Zm-2.472 1.379-1.735-.995-.036.063-.031.066 1.802.866Zm.993 5.087-1.623 1.169.017.022.017.023 1.589-1.214Zm5.13 5.1-1.206 1.597 1.205.909 1.204-.908L24 15.252Zm5.128-5.096 1.589 1.215.017-.022.017-.023-1.623-1.17Zm.993-5.087 1.802-.868-.004-.008-.004-.008-1.794.884Zm-3.404-1.247-.55-1.923-.012.004-.013.003.575 1.916Zm-2.291 1.977L22.62 4.94l-.025.053-.022.054 1.854.75Zm-.43.291v-2 2Zm-.428-.291 1.854-.75-.02-.052-.024-.05-1.81.852ZM21.278 3.82l.567-1.918h-.002l-.565 1.918Zm2.729 10.499c.346.001.68.119.948.33l-2.475 3.143c.43.338.962.525 1.514.527l.012-4Zm.948.33c-2.5-1.971-4.12-3.59-5.212-5.108l-3.247 2.337c1.394 1.936 3.327 3.819 5.983 5.913l2.477-3.141Zm-5.211-5.107c-1.331-1.851-1.343-3.098-.898-4.022l-3.604-1.734c-1.3 2.7-.588 5.528 1.253 8.09l3.249-2.334Zm-.898-4.023c.198-.412.982-1.022 2.125-.684L22.104 1c-3.03-.896-5.818.613-6.863 2.788l3.605 1.732Zm2.129-.683a2.58 2.58 0 0 1 1.386 1.001l3.278-2.292A6.58 6.58 0 0 0 22.1.998l-1.125 3.839Zm4.664 1.001a2.58 2.58 0 0 1 1.386-1.001L25.9.998a6.58 6.58 0 0 0-3.539 2.548l3.278 2.292Zm1.384-1c1.15-.336 1.937.278 2.13.682l3.607-1.732C31.71 1.605 28.917.12 25.903.998l1.12 3.84Zm2.131.683c.445.924.433 2.17-.897 4.022l3.248 2.335c1.841-2.563 2.553-5.391 1.254-8.091L29.154 5.52Zm-.897 4.021c-1.092 1.518-2.71 3.137-5.212 5.109l2.476 3.14c2.656-2.093 4.59-3.976 5.983-5.912l-3.247-2.337Zm-5.211 5.108a1.54 1.54 0 0 1 .948-.33l.012 4a2.46 2.46 0 0 0 1.514-.527l-2.474-3.143ZM20.429 1.686a4.704 4.704 0 0 0-2.477.593L19.9 5.773a.705.705 0 0 1 .371-.09l.158-3.997Zm-2.477.593a4.756 4.756 0 0 0-1.809 1.79l3.47 1.989c.071-.123.171-.22.287-.285l-1.948-3.494Zm-1.876 1.919c-1.164 2.422-.437 4.888 1.172 7.122l3.246-2.338C19.329 7.366 19.407 6.5 19.68 5.93l-3.605-1.732Zm1.206 7.167a28.683 28.683 0 0 0 5.514 5.483l2.409-3.193a24.681 24.681 0 0 1-4.745-4.719l-3.178 2.429Zm7.922 5.484a28.677 28.677 0 0 0 5.514-5.479l-3.177-2.43a24.683 24.683 0 0 1-4.745 4.715l2.408 3.194Zm5.548-5.524c1.615-2.24 2.337-4.707 1.172-7.125L28.32 5.936c.273.566.355 1.43-.813 3.05l3.245 2.34Zm1.164-7.14c-.926-1.88-3.347-2.972-5.747-2.287l1.098 3.846c.324-.092.595-.053.791.028.225.094.284.21.27.18l3.588-1.768Zm-5.773-2.28c-.767.23-1.477.62-2.083 1.144l2.613 3.029c.182-.158.394-.273.62-.341l-1.15-3.832ZM24.06 3.05a5.758 5.758 0 0 0-1.44 1.89l3.613 1.716c.107-.223.257-.42.44-.577L24.06 3.049Zm-1.487 1.998a1.53 1.53 0 0 1 .558-.691l2.25 3.308a2.47 2.47 0 0 0 .9-1.116l-3.708-1.5Zm.558-.691c.254-.173.556-.267.867-.267v4c.495 0 .976-.149 1.383-.426l-2.25-3.307Zm.867-.267c.311 0 .613.094.866.267l-2.25 3.308c.407.276.889.425 1.384.425v-4Zm.866.267c.254.172.447.414.559.691l-3.708 1.501c.182.45.494.84.9 1.115l2.25-3.307Zm.515.591a5.727 5.727 0 0 0-1.441-1.9l-2.613 3.028c.181.156.33.351.434.573l3.62-1.701Zm-1.441-1.9a5.661 5.661 0 0 0-2.093-1.144L20.71 5.74c.224.066.433.18.614.336l2.613-3.028Zm-2.095-1.144a5.344 5.344 0 0 0-1.482-.218l-.021 4c.125 0 .25.019.372.055l1.131-3.837Z" fill="#222" mask="url('#path-6-inside-1_379_900')"/></svg>