<svg width="37" height="36" fill="none" xmlns="http://www.w3.org/2000/svg"><path d="M2.087.53H8.87c1.043 0 1.043.529 1.565 1.588.521 1.058 3.13 12.706 3.13 12.706l4.174 15.882h13.044" stroke="#222"/><path d="M16.174 24.882h14.608L36 10.06" stroke="#222"/><ellipse cx="2.087" cy="2.118" rx="2.087" ry="2.118" fill="#222"/><path d="M22.457 33.353c0 1.193-.951 2.147-2.109 2.147s-2.109-.954-2.109-2.147c0-1.193.951-2.147 2.109-2.147s2.109.954 2.109 2.147ZM31.848 33.353c0 1.193-.951 2.147-2.109 2.147s-2.109-.954-2.109-2.147c0-1.193.951-2.147 2.11-2.147 1.157 0 2.108.954 2.108 2.147Z" stroke="#222"/><path d="M31.412 4.654c-.63-1.294-2.447-2.353-4.56-1.736a4.645 4.645 0 0 0-2.5 1.774 4.645 4.645 0 0 0-2.498-1.774c-2.118-.607-3.93.442-4.56 1.736-.885 1.812-.518 3.85 1.092 6.057 1.261 1.727 3.063 3.477 5.68 5.51a.47.47 0 0 0 .579 0c2.611-2.028 4.419-3.764 5.68-5.51 1.604-2.207 1.971-4.245 1.087-6.057Z" fill="#222"/></svg>