<svg width="138" height="19" fill="none" xmlns="http://www.w3.org/2000/svg"><path d="M6.012 6.402c-.348.627-.643 1.459-.883 2.494-.227 1.023-.343 1.954-.349 2.792-.005.84.22 1.26.674 1.262.29.001.683-.195 1.181-.587l.576.39c-.18.32-.479.64-.894.96-.415.318-.864.477-1.346.474-.978-.004-1.462-.783-1.452-2.337.008-1.246.349-2.83 1.022-4.752-.953.44-1.781.659-2.483.656C1.355 7.75.826 7.582.47 7.247.128 6.9-.028 6.418.004 5.802.083 4.248 1.147 2.575 3.197.782l.636.688c-.748.601-1.31 1.24-1.686 1.917-.362.664-.551 1.219-.568 1.663-.017.444.126.802.427 1.075.301.273.707.41 1.216.412.51.003 1.138-.198 1.884-.602.686-1.687 1.465-2.967 2.338-3.839C8.332 1.212 9.092.771 9.725.774c.248.001.455.07.619.206.164.124.232.34.202.649-.015.296-.12.647-.316 1.053a5.839 5.839 0 0 1-.626 1.015c-.223.27-.548.577-.977.921-.416.344-.727.589-.935.736-.207.135-.54.343-.995.625-.443.27-.671.41-.685.423ZM9.035 2.14c-.358-.001-.697.207-1.016.625-.306.406-.738 1.156-1.296 2.252.775-.503 1.384-1.006 1.828-1.51.458-.503.687-.854.689-1.051 0-.21-.067-.315-.205-.316Zm7.775 8.343.473.335c-.43.528-1.018.97-1.765 1.324-.745.343-1.47.512-2.172.51-.703-.004-1.266-.191-1.69-.563-.425-.372-.636-.86-.632-1.465.008-1.135.683-2.248 2.026-3.34 1.356-1.093 2.723-1.636 4.1-1.63.91.004 1.362.327 1.358.969-.004.666-.49 1.336-1.459 2.01-.955.675-2.301 1.286-4.04 1.833.122.284.313.507.574.669.26.161.529.243.804.244.592.002 1.4-.296 2.423-.896Zm-3.901-.573c1.118-.34 2.078-.768 2.88-1.282.802-.515 1.204-.988 1.207-1.42a.557.557 0 0 0-.204-.426.69.69 0 0 0-.474-.187c-.647-.003-1.352.358-2.114 1.082-.748.712-1.18 1.457-1.295 2.233Zm8.829-.627c1.055-1.402 1.97-2.354 2.745-2.856.774-.515 1.45-.771 2.03-.769.578.003 1.024.165 1.34.487.314.31.47.706.467 1.187-.009 1.332-.554 2.563-1.635 3.693-1.068 1.118-2.27 1.674-3.606 1.669-.592-.003-1.06-.098-1.403-.284l.501-.794c.73.09 1.177.135 1.342.136.744.003 1.442-.383 2.094-1.157.652-.774.981-1.569.986-2.383a1 1 0 0 0-.305-.76c-.191-.21-.445-.316-.762-.318-.758-.003-1.622.592-2.594 1.784-.958 1.193-1.862 2.669-2.714 4.43A45.129 45.129 0 0 0 18.02 19l-1.237-.394c.028-.074.294-.714.797-1.921.49-1.194.973-2.383 1.448-3.565 1.316-3.251 1.974-5.03 1.976-5.34.005-.789-.17-1.505-.523-2.148l1.036-.458c.423.532.633 1.094.63 1.687-.004.58-.14 1.387-.408 2.422ZM31.786 6.92c-.34 1.405-.518 2.428-.536 3.07-.006.875.274 1.315.839 1.317.606.003 1.151-.23 1.636-.696.485-.467.73-1.015.734-1.644.004-.629-.256-.944-.78-.947-.15 0-.482.078-.992.236l-.245-.556c.885-.551 1.582-.826 2.092-.823.95.004 1.423.431 1.417 1.283-.006.999-.48 2.014-1.424 3.047-.93 1.02-1.904 1.527-2.923 1.523-1.115-.005-1.668-.723-1.66-2.154.005-.678.226-1.8.663-3.365l-1.677.548-.018-.444c.138-.074.766-.293 1.884-.658.484-2.465 1.142-4.19 1.975-5.173.833-.995 1.883-1.49 3.15-1.485.578.003 1.038.171 1.38.506.343.334.512.767.509 1.297-.007 1.061-.557 2.052-1.651 2.972-1.094.908-2.552 1.624-4.373 2.146Zm.127-.554c1.202-.489 2.197-1.076 2.987-1.764.79-.687 1.186-1.315 1.19-1.882a.953.953 0 0 0-.285-.723 1.001 1.001 0 0 0-.722-.28c-.578-.003-1.152.358-1.721 1.084-.57.725-1.052 1.913-1.449 3.565Zm12.399.923c.354.532.53 1.12.526 1.76-.006 1-.398 1.893-1.174 2.679-.776.774-1.688 1.158-2.735 1.154-.799-.004-1.424-.21-1.876-.62-.438-.42-.655-.995-.65-1.723.008-1.172.524-2.218 1.549-3.14 1.025-.932 2.171-1.396 3.439-1.39.233 0 .399.008.495.02l.058.611c-1.102-.005-2.02.275-2.753.84-.734.564-1.103 1.29-1.109 2.178-.003.53.139.963.426 1.297.287.322.706.484 1.257.487.565.002 1.014-.218 1.347-.66.334-.443.502-.96.506-1.553a3.46 3.46 0 0 0-.382-1.648l1.076-.292Zm9.691-1.66.805.17c-.015.087-.217.462-.606 1.126-.376.653-.781 1.514-1.215 2.586a12.37 12.37 0 0 0-.847 3.216l-1.322-.098c.005-.679.252-1.554.74-2.625a9.772 9.772 0 0 0-.764-.022c-.372-.001-1.06.076-2.067.232-.712 1.403-1.07 2.604-1.077 3.604l-1.383-.173c.006-.876.377-1.954 1.115-3.233-.703.095-1.406.24-2.11.434l-.201-.722c0-.037.365-.14 1.096-.31.745-.17 1.297-.278 1.655-.326 1.116-2.265 1.876-3.575 2.277-3.931l.887.318c-.07.123-.23.4-.48.83-.628 1.071-1.053 1.908-1.277 2.512 1.199-.106 1.915-.158 2.15-.157.247 0 .454.008.619.02.977-1.981 1.645-3.132 2.005-3.45Zm10.57 5.376.474.316c-.195.37-.555.72-1.08 1.05-.513.331-.982.496-1.409.494-.813-.004-1.216-.388-1.212-1.153.003-.357.109-.782.319-1.275l-.77.7c-.748.675-1.398 1.129-1.95 1.36a3.956 3.956 0 0 1-1.593.345c-.524-.002-.922-.133-1.196-.394-.26-.272-.388-.643-.385-1.112.005-.863.383-1.713 1.132-2.548.748-.848 1.703-1.535 2.864-2.06 1.16-.526 2.319-.792 3.475-.8l.038.611-.869.163c-1.255.242-2.366.73-3.335 1.466-.955.736-1.435 1.474-1.44 2.214-.005.728.323 1.094.984 1.096.62.003 1.387-.382 2.302-1.155a10.486 10.486 0 0 0 2.29-2.729l.864.466c-.864 1.539-1.297 2.518-1.3 2.937 0 .173.06.32.184.445.136.112.267.168.39.168.139 0 .228-.005.27-.017l.124-.037a3.48 3.48 0 0 0 .145-.092.87.87 0 0 0 .166-.11l.249-.165c.11-.074.2-.135.27-.184ZM91.51 1.205l.927.411c-.933 1.612-1.904 3.687-2.912 6.223.635.003 1.068.03 1.302.08l-.09 1.054c-.29.086-.855.126-1.694.123-.294.714-.47 1.293-.528 1.737-.058.444-.109.875-.153 1.294-.03.42-.053.703-.067.851l-1.157-.005c-.068-.21-.1-.426-.1-.648.006-.765.24-1.843.703-3.235-.826-.004-2.08.077-3.762.243-.07.197-.244.566-.523 1.107-.279.53-.558.991-.835 1.385a9.285 9.285 0 0 1-1.083 1.29c-.458.467-.935.86-1.433 1.178-1.424.907-2.805 1.357-4.14 1.352-.551-.003-1.005-.159-1.36-.469-.357-.31-.534-.7-.53-1.168.007-1.184.771-2.254 2.292-3.21 1.535-.968 3.654-1.736 6.358-2.304 1.036-2.66 2.48-4.553 4.333-5.68-1.998.016-3.645.31-4.943.885-1.299.574-1.95 1.311-1.957 2.212-.002.284.046.53.14.74.095.199.32.514.676.947l-.706.59c-.604-.349-1.063-.77-1.376-1.265-.314-.495-.469-.97-.467-1.427.006-.764.465-1.466 1.378-2.103.912-.65 2.046-1.145 3.397-1.484a15.991 15.991 0 0 1 4.115-.519c.702.003 1.184.055 1.445.155.275.087.412.26.41.52-.001.246-.203.48-.604.7-1.727.955-3.123 2.774-4.187 5.459.813-.12 2.075-.25 3.783-.39.672-1.725 1.21-3 1.615-3.824.419-.837.996-1.772 1.733-2.805Zm-13.884 13.17c.509.002 1.102-.199 1.78-.603a5.33 5.33 0 0 0 1.725-1.547c.472-.652.877-1.544 1.215-2.678-1.834.264-3.317.739-4.451 1.424-1.12.674-1.683 1.443-1.688 2.306-.002.346.106.611.325.797.233.199.598.299 1.094.301Zm24.591-3.501.432.316a3.225 3.225 0 0 1-1.124 1.31c-.498.355-.954.532-1.367.53-.4-.002-.715-.127-.948-.374-.233-.26-.348-.594-.345-1 .002-.408.082-.932.237-1.573-.653.91-1.353 1.623-2.1 2.138-.747.514-1.376.77-1.885.768-.77-.003-1.154-.418-1.15-1.244.007-.827.33-1.936.973-3.327.656-1.403 1.122-2.203 1.4-2.4l.988.394c-.57.811-1.002 1.611-1.296 2.4-.294.788-.442 1.318-.444 1.589-.002.259.087.47.265.63.192.162.411.243.66.244.55.002 1.235-.445 2.053-1.342.832-.91 1.681-2.263 2.547-4.06l1.05.43c-.027.099-.349.813-.964 2.142-.6 1.33-.902 2.13-.903 2.402-.002.26.059.457.182.593.137.136.268.205.391.205.138 0 .241-.005.31-.017a.694.694 0 0 0 .207-.073c.07-.037.125-.067.166-.092a.78.78 0 0 0 .187-.128l.145-.148a.874.874 0 0 0 .167-.147c.083-.086.138-.141.166-.166Zm15.723-.172.432.372c-.794 1.255-1.699 1.88-2.719 1.876-.413-.002-.736-.102-.969-.3-.219-.211-.327-.483-.325-.816.002-.346.233-.93.693-1.755.46-.825.705-1.453.735-1.884a.539.539 0 0 0-.203-.482c-.137-.124-.33-.187-.578-.188a1.949 1.949 0 0 0-.765.163 2.384 2.384 0 0 0-.747.497c-.236.233-.457.46-.666.681a7.252 7.252 0 0 0-.667.941c-.237.406-.438.745-.605 1.015a86.474 86.474 0 0 0-1.254 2.27l-1.238-.393c.001-.037.233-.733.696-2.088.462-1.355.695-2.162.697-2.421.001-.26-.066-.445-.204-.556a.74.74 0 0 0-.515-.187c-.62-.003-1.485.684-2.595 2.06-1.097 1.377-1.8 2.553-2.109 3.526l-1.176-.357c.074-.653.404-1.824.994-3.511.589-1.7 1.086-2.858 1.488-3.473l.929.3c-.433.85-.734 1.57-.903 2.161-.169.58-.317 1.202-.445 1.867 1.193-1.512 2.192-2.568 2.995-3.17.803-.613 1.528-.918 2.175-.915.702.003 1.051.32 1.048.948-.002.247-.129.734-.382 1.46-.238.727-.428 1.3-.569 1.719 1.918-2.73 3.629-4.092 5.13-4.086.371.002.667.108.886.319.219.198.327.5.325.908-.003.395-.269 1.054-.798 1.976-.515.923-.774 1.508-.776 1.755-.001.234.053.407.162.519.11.111.247.167.412.168.359.002.829-.305 1.411-.919Zm8.782.39.514.41c-.806 1.168-1.657 1.75-2.553 1.746-.509-.002-1.031-.3-1.564-.895-.52-.594-.833-1.17-.939-1.725-.084.135-.32.492-.709 1.07-.389.578-.668 1.052-.836 1.421l-1.237-.394a40.35 40.35 0 0 1 1.081-4.288c.435-1.343.841-2.285 1.217-2.826l.845.244c-.252.567-.674 2.076-1.268 4.528.766-1.39 1.537-2.404 2.312-3.043.776-.65 1.625-1.078 2.549-1.284l-.008 1.221c-.991.033-1.953.627-2.882 1.783.049.802.307 1.47.772 2.002.478.532.931.8 1.358.801.207.001.656-.256 1.348-.771Zm10.806.232.473.317c-.196.37-.556.72-1.081 1.05-.512.33-.981.495-1.408.493-.813-.003-1.217-.387-1.212-1.152.002-.358.109-.783.318-1.276l-.768.7c-.749.675-1.399 1.129-1.951 1.361a3.964 3.964 0 0 1-1.593.345c-.524-.003-.922-.134-1.196-.394-.26-.273-.388-.643-.386-1.112.006-.864.383-1.713 1.133-2.549.749-.848 1.703-1.534 2.864-2.06 1.16-.525 2.319-.792 3.476-.799l.037.611-.869.163c-1.254.241-2.367.73-3.335 1.466-.956.736-1.435 1.474-1.44 2.214-.004.728.324 1.093.985 1.096.619.003 1.386-.383 2.301-1.156a10.517 10.517 0 0 0 2.29-2.729l.864.467c-.864 1.538-1.297 2.517-1.3 2.936a.601.601 0 0 0 .184.445c.137.112.267.168.391.169.137 0 .227-.006.269-.018l.124-.036a3.46 3.46 0 0 0 .145-.092.878.878 0 0 0 .166-.11l.249-.166c.11-.073.201-.135.27-.184Z" fill="#f8fafc"/></svg>