<svg aria-hidden="true" style="width:0;height:0;position:absolute;overflow:hidden" xmlns="http://www.w3.org/2000/svg"><defs><symbol id="icon-instagram" viewBox="0 0 32 32"><path d="M10.24 1.92c-4.587 0-8.32 3.733-8.32 8.32v11.52c0 4.587 3.733 8.32 8.32 8.32h11.52c4.587 0 8.32-3.733 8.32-8.32V10.24c0-4.587-3.733-8.32-8.32-8.32H10.24zm0 1.28h11.52a7.031 7.031 0 0 1 7.04 7.04v11.52a7.031 7.031 0 0 1-7.04 7.04H10.24a7.031 7.031 0 0 1-7.04-7.04V10.24a7.031 7.031 0 0 1 7.04-7.04zm13.44 3.84a1.28 1.28 0 1 0 0 2.56 1.28 1.28 0 1 0 0-2.56zM16 8.96c-3.88 0-7.04 3.159-7.04 7.04s3.159 7.04 7.04 7.04c3.881 0 7.04-3.16 7.04-7.04S19.88 8.96 16 8.96zm0 1.28c3.189 0 5.76 2.571 5.76 5.76s-2.571 5.76-5.76 5.76c-3.189 0-5.76-2.571-5.76-5.76s2.571-5.76 5.76-5.76z"/></symbol><symbol id="icon-telegram" viewBox="0 0 32 32"><path d="M28.401 3.831c-.312.014-.615.1-.889.21-.271.109-1.83.774-4.133 1.759s-5.296 2.266-8.262 3.538C9.183 11.88 3.352 14.382 3.352 14.382l.042-.016s-.352.118-.709.366c-.178.124-.37.285-.527.519s-.272.566-.229.916c.152 1.232 1.429 1.581 1.429 1.581l.005.003 5.697 1.95c.145.485 1.728 5.767 2.076 6.886.192.619.372.975.56 1.219.094.122.192.216.301.285a.832.832 0 0 0 .134.066h.002l.016.005-.015-.004.031.015c.02.007.033.007.059.012.652.228 1.192-.195 1.192-.195l.023-.017 3.5-3.246 5.68 4.429.071.032c.994.441 1.893.195 2.391-.21s.694-.927.694-.927l.021-.055L29.97 6.242c.107-.487.122-.907.021-1.287s-.345-.711-.652-.894a1.663 1.663 0 0 0-.94-.229zm.034 1.302c.127-.006.22.009.25.026s.043.015.071.122c.028.107.044.333-.034.686l-.003.008-4.15 21.628c-.01.022-.096.222-.294.383-.201.164-.425.292-1.02.043l-6.39-4.977-1.857-1.394L25.447 9.377a.64.64 0 0 0-.487-1.055h-.017.001a.633.633 0 0 0-.341.109l.002-.001L9.5 18.5l-5.706-1.954s-.567-.315-.594-.535c-.002-.012-.008-.001.021-.045s.103-.118.196-.182c.186-.129.397-.207.397-.207l.021-.008.021-.009s5.831-2.502 11.765-5.044c2.967-1.271 5.959-2.552 8.261-3.536s3.964-1.692 4.105-1.749c.16-.064.32-.09.446-.096zm-6.923 6.894-7.92 9.317-.034.044-.001.002a.498.498 0 0 0-.033.051l-.002.003a.632.632 0 0 0-.083.243V21.696l-1.031 4.637c-.017-.05-.029-.068-.047-.128v-.001c-.328-1.052-1.821-6.035-2.027-6.724l11.18-7.454zm-7.022 10.84 1.422 1.067-2.09 1.938.668-3.005z"/></symbol></defs></svg>