<svg width="22" height="22" viewBox="0 0 22 22" fill="none" xmlns="http://www.w3.org/2000/svg">
<g clip-path="url(#clip0_534_5523)">
<path d="M17.875 9.07502L11 15.95L4.125 9.07502L6.05 7.15002L11 12.1L15.95 7.15002L17.875 9.07502Z" fill="#6CB0F3"/>
<path d="M1.375 11C1.375 5.6375 5.6375 1.375 11 1.375C16.3625 1.375 20.625 5.6375 20.625 11C20.625 16.3625 16.3625 20.625 11 20.625C5.6375 20.625 1.375 16.3625 1.375 11ZM0 11C0 17.05 4.95 22 11 22C17.05 22 22 17.05 22 11C22 4.95 17.05 0 11 0C4.95 0 0 4.95 0 11Z" fill="#6CB0F3"/>
</g>
<defs>
<clipPath id="clip0_534_5523">
<rect width="22" height="22" fill="white"/>
</clipPath>
</defs>
</svg>
