<svg width="34" height="34" viewBox="0 0 34 34" fill="none" xmlns="http://www.w3.org/2000/svg">
<path d="M33.66 5.09937H0.34C0.153 5.09937 0 5.22107 0 5.36982V7.53346C0 7.68221 0.153 7.80391 0.34 7.80391H33.66C33.847 7.80391 34 7.68221 34 7.53346V5.36982C34 5.22107 33.847 5.09937 33.66 5.09937ZM33.66 26.1948H0.34C0.153 26.1948 0 26.3165 0 26.4653V28.6289C0 28.7777 0.153 28.8994 0.34 28.8994H33.66C33.847 28.8994 34 28.7777 34 28.6289V26.4653C34 26.3165 33.847 26.1948 33.66 26.1948ZM33.66 15.6471H0.34C0.153 15.6471 0 15.7688 0 15.9175V18.0812C0 18.2299 0.153 18.3516 0.34 18.3516H33.66C33.847 18.3516 34 18.2299 34 18.0812V15.9175C34 15.7688 33.847 15.6471 33.66 15.6471Z" fill="#222222"/>
</svg>
