<svg width="31" height="31" viewBox="0 0 31 31" fill="none" xmlns="http://www.w3.org/2000/svg">
<path d="M21.9581 2.5831C23.6695 2.58821 25.3094 3.27033 26.5195 4.48049C27.7297 5.69064 28.4118 7.33049 28.4169 9.0419V21.9581C28.4118 23.6695 27.7297 25.3094 26.5195 26.5195C25.3094 27.7297 23.6695 28.4118 21.9581 28.4169H9.0419C7.33049 28.4118 5.69064 27.7297 4.48049 26.5195C3.27033 25.3094 2.58821 23.6695 2.5831 21.9581V9.0419C2.58821 7.33049 3.27033 5.69064 4.48049 4.48049C5.69064 3.27033 7.33049 2.58821 9.0419 2.5831H21.9581ZM21.9581 0H9.0419C4.06875 0 0 4.06875 0 9.0419V21.9581C0 26.9312 4.06875 31 9.0419 31H21.9581C26.9312 31 31 26.9312 31 21.9581V9.0419C31 4.06875 26.9312 0 21.9581 0Z" fill="#222222"/>
<path d="M23.8956 7.89905C23.5124 7.89905 23.1378 7.78542 22.8192 7.57252C22.5006 7.35963 22.2522 7.05703 22.1056 6.703C21.9589 6.34897 21.9206 5.9594 21.9953 5.58356C22.0701 5.20772 22.2546 4.86249 22.5256 4.59153C22.7966 4.32056 23.1418 4.13604 23.5176 4.06128C23.8935 3.98652 24.283 4.02489 24.6371 4.17153C24.9911 4.31818 25.2937 4.56651 25.5066 4.88513C25.7195 5.20375 25.8331 5.57835 25.8331 5.96155C25.8337 6.21614 25.7839 6.46833 25.6867 6.70364C25.5896 6.93896 25.4469 7.15277 25.2668 7.33279C25.0868 7.51281 24.873 7.65551 24.6377 7.75268C24.4024 7.84985 24.1502 7.8996 23.8956 7.89905ZM15.5 9.19025C16.5219 9.19025 17.5209 9.49329 18.3706 10.061C19.2203 10.6288 19.8825 11.4357 20.2736 12.3799C20.6647 13.324 20.767 14.3629 20.5676 15.3652C20.3683 16.3674 19.8762 17.2881 19.1536 18.0107C18.4309 18.7333 17.5103 19.2254 16.508 19.4248C15.5057 19.6241 14.4668 19.5218 13.5227 19.1307C12.5786 18.7397 11.7716 18.0774 11.2039 17.2277C10.6361 16.378 10.3331 15.3791 10.3331 14.3572C10.3346 12.9873 10.8794 11.6739 11.8481 10.7052C12.8167 9.73656 14.1301 9.19172 15.5 9.19025ZM15.5 6.60715C13.9672 6.60715 12.4688 7.06168 11.1943 7.91326C9.91985 8.76484 8.92652 9.97523 8.33994 11.3914C7.75336 12.8075 7.59988 14.3657 7.89892 15.8691C8.19795 17.3725 8.93607 18.7534 10.0199 19.8372C11.1038 20.9211 12.4847 21.6592 13.9881 21.9582C15.4914 22.2573 17.0497 22.1038 18.4658 21.5172C19.8819 20.9306 21.0923 19.9373 21.9439 18.6628C22.7955 17.3883 23.25 15.89 23.25 14.3572C23.25 12.3017 22.4335 10.3305 20.9801 8.87707C19.5267 7.42367 17.5554 6.60715 15.5 6.60715Z" fill="#222222"/>
</svg>
