<svg width="37" height="36" viewBox="0 0 37 36" fill="none" xmlns="http://www.w3.org/2000/svg">
<path d="M2.08691 0.529419C2.08691 0.529419 7.82604 0.529419 8.86952 0.529419C9.913 0.529419 9.913 1.05883 10.4347 2.11765C10.9565 3.17648 13.5652 14.8235 13.5652 14.8235L17.7391 30.7059H30.7826" stroke="#222222"/>
<path d="M16.1738 24.8824H30.7825L35.9999 10.0588" stroke="#222222"/>
<path d="M3.67391 2.11765C3.67391 3.01796 2.95655 3.73529 2.08696 3.73529C1.21736 3.73529 0.5 3.01796 0.5 2.11765C0.5 1.21734 1.21736 0.5 2.08696 0.5C2.95655 0.5 3.67391 1.21734 3.67391 2.11765Z" fill="#222222" stroke="#222222"/>
<path d="M22.4566 33.353C22.4566 34.5457 21.5057 35.5001 20.348 35.5001C19.1902 35.5001 18.2393 34.5457 18.2393 33.353C18.2393 32.1603 19.1902 31.2059 20.348 31.2059C21.5057 31.2059 22.4566 32.1603 22.4566 33.353Z" stroke="#222222"/>
<path d="M31.8478 33.353C31.8478 34.5457 30.8968 35.5001 29.7391 35.5001C28.5813 35.5001 27.6304 34.5457 27.6304 33.353C27.6304 32.1603 28.5813 31.2059 29.7391 31.2059C30.8968 31.2059 31.8478 32.1603 31.8478 33.353Z" stroke="#222222"/>
<mask id="path-6-inside-1_379_900" fill="white">
<path d="M24.0002 16.32C23.8977 16.3197 23.7982 16.285 23.7173 16.2212C21.1387 14.1883 19.3625 12.4377 18.1196 10.7106C16.5335 8.50356 16.1717 6.46592 17.0436 4.65415C17.6651 3.36003 19.4506 2.30121 21.5375 2.91768C22.5326 3.20932 23.4007 3.83476 24.0002 4.6918C24.5996 3.83476 25.4677 3.20932 26.4628 2.91768C28.5451 2.31062 30.3352 3.36003 30.9567 4.65415C31.8286 6.46592 31.4668 8.50356 29.8807 10.7106C28.6378 12.4377 26.8616 14.1883 24.283 16.2212C24.2021 16.285 24.1026 16.3197 24.0002 16.32ZM20.3503 3.68474C19.8537 3.66513 19.3613 3.78311 18.9258 4.02603C18.4903 4.26895 18.1282 4.62763 17.8784 5.06356C17.1596 6.56003 17.4842 8.22592 18.8709 10.1506C20.3445 12.0794 22.0701 13.7955 24.0002 15.2518C25.9299 13.797 27.6554 12.0824 29.1294 10.1553C30.5207 8.22592 30.8407 6.56003 30.1219 5.06827C29.6581 4.12709 28.2668 3.37886 26.7178 3.82121C26.2212 3.97015 25.7607 4.22296 25.3661 4.56336C24.9716 4.90377 24.6516 5.32423 24.4268 5.79768C24.3919 5.88399 24.3324 5.95781 24.2561 6.00977C24.1797 6.06172 24.0898 6.08946 23.9978 6.08946C23.9059 6.08946 23.816 6.06172 23.7396 6.00977C23.6632 5.95781 23.6038 5.88399 23.5688 5.79768C23.3458 5.32304 23.0263 4.9016 22.6315 4.56098C22.2367 4.22037 21.7754 3.96827 21.2778 3.82121C20.9764 3.73236 20.6642 3.68643 20.3503 3.68474Z"/>
</mask>
<path d="M24.0002 16.32C23.8977 16.3197 23.7982 16.285 23.7173 16.2212C21.1387 14.1883 19.3625 12.4377 18.1196 10.7106C16.5335 8.50356 16.1717 6.46592 17.0436 4.65415C17.6651 3.36003 19.4506 2.30121 21.5375 2.91768C22.5326 3.20932 23.4007 3.83476 24.0002 4.6918C24.5996 3.83476 25.4677 3.20932 26.4628 2.91768C28.5451 2.31062 30.3352 3.36003 30.9567 4.65415C31.8286 6.46592 31.4668 8.50356 29.8807 10.7106C28.6378 12.4377 26.8616 14.1883 24.283 16.2212C24.2021 16.285 24.1026 16.3197 24.0002 16.32ZM20.3503 3.68474C19.8537 3.66513 19.3613 3.78311 18.9258 4.02603C18.4903 4.26895 18.1282 4.62763 17.8784 5.06356C17.1596 6.56003 17.4842 8.22592 18.8709 10.1506C20.3445 12.0794 22.0701 13.7955 24.0002 15.2518C25.9299 13.797 27.6554 12.0824 29.1294 10.1553C30.5207 8.22592 30.8407 6.56003 30.1219 5.06827C29.6581 4.12709 28.2668 3.37886 26.7178 3.82121C26.2212 3.97015 25.7607 4.22296 25.3661 4.56336C24.9716 4.90377 24.6516 5.32423 24.4268 5.79768C24.3919 5.88399 24.3324 5.95781 24.2561 6.00977C24.1797 6.06172 24.0898 6.08946 23.9978 6.08946C23.9059 6.08946 23.816 6.06172 23.7396 6.00977C23.6632 5.95781 23.6038 5.88399 23.5688 5.79768C23.3458 5.32304 23.0263 4.9016 22.6315 4.56098C22.2367 4.22037 21.7754 3.96827 21.2778 3.82121C20.9764 3.73236 20.6642 3.68643 20.3503 3.68474Z" fill="#222222"/>
<path d="M24.0002 16.32L23.9938 18.3201L24.0065 18.32L24.0002 16.32ZM23.7173 16.2212L22.479 17.7918L22.4799 17.7925L23.7173 16.2212ZM18.1196 10.7106L16.4955 11.8778L16.4962 11.8789L18.1196 10.7106ZM17.0436 4.65415L18.8458 5.52142L18.8465 5.51992L17.0436 4.65415ZM21.5375 2.91768L20.971 4.83575L20.975 4.83694L21.5375 2.91768ZM24.0002 4.6918L22.3612 5.83808L24.0002 8.18135L25.6391 5.83808L24.0002 4.6918ZM26.4628 2.91768L25.903 0.997608L25.9002 0.99842L26.4628 2.91768ZM30.9567 4.65415L29.1538 5.51992L29.1545 5.52142L30.9567 4.65415ZM29.8807 10.7106L31.5041 11.8789L31.5048 11.8778L29.8807 10.7106ZM24.283 16.2212L25.5204 17.7925L25.5213 17.7918L24.283 16.2212ZM20.3503 3.68474L20.2714 5.68318L20.3054 5.68453L20.3395 5.68471L20.3503 3.68474ZM17.8784 5.06356L16.1431 4.06924L16.107 4.13219L16.0756 4.19758L17.8784 5.06356ZM18.8709 10.1506L17.2482 11.3197L17.2646 11.3425L17.2817 11.3649L18.8709 10.1506ZM24.0002 15.2518L22.7955 16.8483L23.9996 17.7569L25.2041 16.8488L24.0002 15.2518ZM29.1294 10.1553L30.718 11.3704L30.7351 11.348L30.7516 11.3251L29.1294 10.1553ZM30.1219 5.06827L31.9236 4.20007L31.9198 4.19214L31.9159 4.18426L30.1219 5.06827ZM26.7178 3.82121L26.1686 1.89809L26.156 1.90171L26.1434 1.90549L26.7178 3.82121ZM24.4268 5.79768L22.6201 4.93994L22.595 4.99288L22.573 5.0472L24.4268 5.79768ZM23.9978 6.08946V4.08946V6.08946ZM23.5688 5.79768L25.4227 5.0472L25.4022 4.99648L25.3789 4.94695L23.5688 5.79768ZM21.2778 3.82121L21.8447 1.90323L21.8432 1.90279L21.2778 3.82121ZM24.0065 14.32C24.3534 14.3211 24.6867 14.439 24.9546 14.6499L22.4799 17.7925C22.9097 18.1309 23.442 18.3183 23.9938 18.32L24.0065 14.32ZM24.9555 14.6506C22.4542 12.6786 20.8352 11.0601 19.7429 9.54237L16.4962 11.8789C17.8898 13.8153 19.8232 15.6979 22.479 17.7918L24.9555 14.6506ZM19.7437 9.54346C18.4129 7.69171 18.4013 6.44502 18.8458 5.52142L15.2415 3.78688C13.9422 6.48681 14.654 9.31541 16.4955 11.8778L19.7437 9.54346ZM18.8465 5.51992C19.0445 5.10756 19.828 4.49812 20.971 4.83575L22.1041 0.999612C19.0732 0.104304 16.2856 1.6125 15.2407 3.78838L18.8465 5.51992ZM20.975 4.83694C21.5297 4.99953 22.0199 5.35002 22.3612 5.83808L25.6391 3.54552C24.7816 2.31949 23.5354 1.41911 22.1001 0.99842L20.975 4.83694ZM25.6391 5.83808C25.9804 5.35002 26.4706 4.99953 27.0253 4.83694L25.9002 0.99842C24.4649 1.41911 23.2187 2.31949 22.3612 3.54552L25.6391 5.83808ZM27.0225 4.83775C28.1736 4.50218 28.9596 5.11554 29.1538 5.51992L32.7596 3.78838C31.7109 1.60452 28.9166 0.119061 25.903 0.99761L27.0225 4.83775ZM29.1545 5.52142C29.599 6.44502 29.5874 7.69171 28.2566 9.54346L31.5048 11.8778C33.3463 9.31541 34.0581 6.48681 32.7588 3.78688L29.1545 5.52142ZM28.2574 9.54237C27.1651 11.0601 25.5461 12.6786 23.0448 14.6506L25.5213 17.7918C28.1771 15.6979 30.1105 13.8153 31.5041 11.8789L28.2574 9.54237ZM23.0457 14.6499C23.3136 14.439 23.6469 14.3211 23.9938 14.32L24.0065 18.32C24.5583 18.3183 25.0906 18.1309 25.5204 17.7925L23.0457 14.6499ZM20.4292 1.6863C19.5638 1.65212 18.707 1.85793 17.9515 2.27939L19.9 5.77268C20.0155 5.7083 20.1437 5.67814 20.2714 5.68318L20.4292 1.6863ZM17.9515 2.27939C17.1962 2.7007 16.5721 3.32058 16.1431 4.06924L19.6137 6.05788C19.6843 5.93468 19.7844 5.8372 19.9 5.77268L17.9515 2.27939ZM16.0756 4.19758C14.912 6.61988 15.6389 9.08602 17.2482 11.3197L20.4936 8.98152C19.3295 7.36581 19.4071 6.50019 19.6812 5.92955L16.0756 4.19758ZM17.2817 11.3649C18.8651 13.4373 20.72 15.2822 22.7955 16.8483L25.2048 13.6553C23.4203 12.3088 21.8239 10.7214 20.4601 8.93638L17.2817 11.3649ZM25.2041 16.8488C27.2794 15.2843 29.1342 13.4411 30.718 11.3704L27.5408 8.94026C26.1767 10.7237 24.5803 12.3097 22.7962 13.6548L25.2041 16.8488ZM30.7516 11.3251C32.3669 9.08517 33.0886 6.61777 31.9236 4.20007L28.3202 5.93647C28.5928 6.5023 28.6746 7.36666 27.5072 8.98554L30.7516 11.3251ZM31.9159 4.18426C30.9899 2.30496 28.569 1.21261 26.1686 1.89809L27.267 5.74433C27.5914 5.6517 27.8623 5.69083 28.0585 5.77245C28.2831 5.86591 28.3423 5.98165 28.3279 5.95228L31.9159 4.18426ZM26.1434 1.90549C25.3758 2.13567 24.6662 2.52578 24.0597 3.04902L26.6726 6.07771C26.8552 5.92014 27.0665 5.80464 27.2923 5.73693L26.1434 1.90549ZM24.0597 3.04902C23.4533 3.57219 22.9634 4.21669 22.6201 4.93994L26.2335 6.65542C26.3397 6.43176 26.4898 6.23534 26.6726 6.07771L24.0597 3.04902ZM22.573 5.0472C22.6851 4.7701 22.8779 4.52836 23.1312 4.35604L25.3809 7.6635C25.787 7.38726 26.0986 6.99788 26.2807 6.54816L22.573 5.0472ZM23.1312 4.35604C23.385 4.18348 23.6866 4.08946 23.9978 4.08946V8.08946C24.4929 8.08946 24.9744 7.93996 25.3809 7.6635L23.1312 4.35604ZM23.9978 4.08946C24.309 4.08946 24.6107 4.18348 24.8644 4.35604L22.6148 7.6635C23.0213 7.93997 23.5027 8.08946 23.9978 8.08946V4.08946ZM24.8644 4.35604C25.1178 4.52836 25.3105 4.77009 25.4227 5.0472L21.715 6.54816C21.8971 6.99789 22.2087 7.38727 22.6148 7.6635L24.8644 4.35604ZM25.3789 4.94695C25.0371 4.21972 24.5466 3.57175 23.938 3.04664L21.3251 6.07533C21.5061 6.23145 21.6544 6.42636 21.7588 6.64841L25.3789 4.94695ZM23.938 3.04664C23.3292 2.52146 22.6161 2.13121 21.8447 1.90323L20.711 5.73919C20.9347 5.80532 21.1442 5.91928 21.3251 6.07533L23.938 3.04664ZM21.8432 1.90279C21.3619 1.76092 20.863 1.68748 20.3611 1.68477L20.3395 5.68471C20.4654 5.68539 20.5909 5.7038 20.7124 5.73963L21.8432 1.90279Z" fill="#222222" mask="url(#path-6-inside-1_379_900)"/>
</svg>
