<svg width="37" height="36" viewBox="0 0 37 36" fill="none" xmlns="http://www.w3.org/2000/svg">
<path d="M2.08691 0.529419C2.08691 0.529419 7.82604 0.529419 8.86952 0.529419C9.913 0.529419 9.913 1.05883 10.4347 2.11765C10.9565 3.17648 13.5652 14.8235 13.5652 14.8235L17.7391 30.7059H30.7826" stroke="#222222"/>
<path d="M16.1738 24.8824H30.7825L35.9999 10.0588" stroke="#222222"/>
<ellipse cx="2.08696" cy="2.11765" rx="2.08696" ry="2.11765" fill="#222222"/>
<path d="M22.4566 33.353C22.4566 34.5457 21.5057 35.5001 20.348 35.5001C19.1902 35.5001 18.2393 34.5457 18.2393 33.353C18.2393 32.1603 19.1902 31.2059 20.348 31.2059C21.5057 31.2059 22.4566 32.1603 22.4566 33.353Z" stroke="#222222"/>
<path d="M31.8478 33.353C31.8478 34.5457 30.8968 35.5001 29.7391 35.5001C28.5813 35.5001 27.6304 34.5457 27.6304 33.353C27.6304 32.1603 28.5813 31.2059 29.7391 31.2059C30.8968 31.2059 31.8478 32.1603 31.8478 33.353Z" stroke="#222222"/>
<path d="M31.4117 4.65415C30.7811 3.36003 28.9647 2.30121 26.8517 2.91768C25.8421 3.20932 24.9611 3.83476 24.3529 4.6918C23.7447 3.83476 22.8637 3.20932 21.8541 2.91768C19.7364 2.31062 17.9247 3.36003 17.2941 4.65415C16.4094 6.46592 16.7764 8.50356 18.3858 10.7106C19.647 12.4377 21.4494 14.1883 24.0658 16.2212C24.1485 16.2857 24.2504 16.3207 24.3553 16.3207C24.4601 16.3207 24.562 16.2857 24.6447 16.2212C27.2564 14.193 29.0635 12.4565 30.3247 10.7106C31.9294 8.50356 32.2964 6.46592 31.4117 4.65415Z" fill="#b6061d"/>
</svg>
