<svg width="138" height="19" viewBox="0 0 138 19" fill="none" xmlns="http://www.w3.org/2000/svg">
<path d="M6.01215 6.40154C5.66384 7.02918 5.36931 7.8606 5.12856 8.8958C4.90163 9.91874 4.78555 10.8496 4.78019 11.6884C4.77484 12.5273 4.99938 12.9477 5.45389 12.9497C5.74312 12.951 6.13694 12.7553 6.63529 12.3627L7.21124 12.7538C7.03014 13.0738 6.732 13.3932 6.31674 13.7122C5.90155 14.0311 5.45292 14.1895 4.97084 14.1874C3.993 14.1831 3.50899 13.4038 3.51894 11.8495C3.52688 10.6036 3.8675 9.01984 4.54087 7.09828C3.58769 7.53822 2.75996 7.75669 2.05754 7.75363C1.35511 7.75056 0.825908 7.58171 0.469919 7.24707C0.127811 6.90017 -0.0275212 6.41837 0.00398453 5.80166C0.0827488 4.24764 1.14703 2.57457 3.1969 0.782372L3.83302 1.46986C3.08541 2.07108 2.52354 2.71011 2.14734 3.38696C1.78496 4.0515 1.59554 4.60582 1.57888 5.04986C1.56229 5.49391 1.70465 5.85225 2.00589 6.12502C2.30719 6.39773 2.71263 6.53518 3.22221 6.53737C3.73179 6.53963 4.35978 6.3388 5.1061 5.935C5.79174 4.24788 6.57118 2.9683 7.44449 2.09623C8.33156 1.2119 9.09196 0.771096 9.72549 0.773871C9.9734 0.77497 10.1795 0.843726 10.344 0.980137C10.5084 1.10423 10.5759 1.32038 10.5464 1.62865C10.5308 1.92466 10.4252 2.27578 10.2298 2.68207C10.0345 3.07598 9.82569 3.41432 9.60354 3.69708C9.38145 3.96748 9.0558 4.27447 8.62667 4.61802C8.21128 4.96162 7.89984 5.20697 7.69228 5.35414C7.48484 5.48893 7.15294 5.69716 6.69662 5.97895C6.25419 6.24842 6.02603 6.38928 6.01215 6.40154ZM9.03501 2.14018C8.67689 2.13862 8.33814 2.34691 8.0187 2.76493C7.71307 3.1707 7.28135 3.92133 6.72341 5.01679C7.49789 4.5144 8.10714 4.01125 8.55113 3.50742C9.0088 3.00364 9.23832 2.65304 9.23961 2.45568C9.2409 2.24594 9.17272 2.14082 9.03501 2.14018ZM16.8099 10.4827L17.283 10.8178C16.8526 11.3464 16.2645 11.7879 15.5185 12.1424C14.7725 12.4846 14.0484 12.6541 13.3459 12.6511C12.6435 12.648 12.08 12.4605 11.6554 12.0885C11.2308 11.7166 11.0205 11.2284 11.0243 10.6239C11.0315 9.48904 11.7066 8.37554 13.0496 7.2835C14.4063 6.19146 15.7734 5.64848 17.1506 5.65449C18.0596 5.65842 18.5121 5.98115 18.508 6.62261C18.5038 7.28876 18.0174 7.95896 17.049 8.63327C16.0944 9.30758 14.7475 9.91851 13.0087 10.4661C13.1308 10.7503 13.3222 10.9733 13.5829 11.1348C13.8435 11.2963 14.1116 11.3776 14.387 11.3788C14.9793 11.3814 15.7869 11.0827 16.8099 10.4827ZM12.9089 9.91047C14.0267 9.56993 14.9866 9.14237 15.7888 8.62778C16.5909 8.11313 16.9934 7.63994 16.9961 7.20815C16.9971 7.0478 16.9291 6.90567 16.7922 6.78169C16.6553 6.65771 16.4973 6.59537 16.3183 6.59456C15.6709 6.59173 14.9662 6.95256 14.204 7.67712C13.4558 8.38936 13.024 9.13381 12.9089 9.91047ZM21.7376 9.28289C22.7932 7.88113 23.7083 6.92909 24.4828 6.42664C25.2574 5.91193 25.9339 5.65582 26.5124 5.65836C27.0908 5.66085 27.5374 5.82317 27.8522 6.14532C28.167 6.45509 28.3228 6.8505 28.3198 7.33161C28.3113 8.66392 27.7663 9.89515 26.6848 11.0254C25.6171 12.1434 24.4153 12.6994 23.0793 12.6936C22.4871 12.691 22.0194 12.5964 21.6763 12.4099L22.1771 11.6163C22.9066 11.7059 23.3539 11.751 23.5192 11.7518C24.2629 11.755 24.9609 11.3695 25.6132 10.5951C26.2655 9.82078 26.5942 9.02649 26.5994 8.21236C26.6014 7.90391 26.4997 7.65058 26.2943 7.4523C26.1028 7.24175 25.8487 7.13581 25.532 7.13443C24.7744 7.13113 23.9098 7.72564 22.9381 8.91801C21.9802 10.1105 21.0755 11.5869 20.2241 13.3472C19.3864 15.12 18.6513 17.0043 18.0188 19L16.7817 18.606C16.8098 18.5321 17.0755 17.8918 17.5791 16.685C18.0687 15.4906 18.5515 14.3022 19.0273 13.12C20.3427 9.86895 21.0014 8.08919 21.0034 7.7808C21.0084 6.99131 20.8339 6.27502 20.4799 5.632L21.5158 5.1739C21.9394 5.70624 22.1493 6.26843 22.1455 6.86056C22.1418 7.44038 22.0058 8.2478 21.7376 9.28289ZM31.786 6.92116C31.4465 8.32604 31.2678 9.34916 31.2499 9.99056C31.2443 10.8664 31.5239 11.3056 32.0886 11.3081C32.6946 11.3107 33.2401 11.0787 33.7251 10.612C34.2102 10.1454 34.4547 9.59746 34.4587 8.96832C34.4627 8.33917 34.203 8.0235 33.6797 8.02118C33.5282 8.02055 33.1971 8.09925 32.6865 8.2574L32.4421 7.70124C33.3271 7.14992 34.0244 6.87542 34.534 6.87762C35.4843 6.88178 35.9568 7.30946 35.9513 8.16066C35.945 9.15983 35.4702 10.1755 34.5271 11.2077C33.5978 12.2275 32.6235 12.7352 31.6043 12.7308C30.4887 12.7259 29.9355 12.008 29.9446 10.577C29.9489 9.89856 30.1696 8.77691 30.6065 7.21209L28.9296 7.75987L28.9117 7.31571C29.05 7.24227 29.678 7.023 30.796 6.65777C31.28 4.19265 31.9383 2.4684 32.771 1.48513C33.6037 0.489543 34.6537 -0.00550511 35.9207 4.61698e-05C36.4992 0.00253268 36.9595 0.171096 37.3018 0.505676C37.6439 0.840256 37.8133 1.27273 37.81 1.80323C37.8032 2.8641 37.2528 3.85478 36.1589 4.77525C35.065 5.68334 33.6074 6.39865 31.786 6.92116ZM31.9134 6.36656C33.1149 5.87839 34.1102 5.29059 34.8997 4.60321C35.6891 3.91578 36.0857 3.28837 36.0893 2.72093C36.0912 2.42486 35.9963 2.1839 35.8047 1.99799C35.613 1.81214 35.3726 1.71857 35.0834 1.7173C34.5049 1.71476 33.931 2.07617 33.3617 2.80153C32.7924 3.5269 32.3097 4.71522 31.9134 6.36656ZM44.3119 7.29044C44.6663 7.82244 44.8419 8.4092 44.8381 9.05066C44.8316 10.0498 44.4404 10.9425 43.6637 11.7287C42.8875 12.5025 41.976 12.8871 40.9293 12.8825C40.1305 12.879 39.5051 12.6728 39.0532 12.2637C38.6152 11.8423 38.3984 11.2678 38.4031 10.5399C38.4106 9.36801 38.9268 8.32165 39.9519 7.40089C40.9771 6.46781 42.1232 6.00405 43.3906 6.0096C43.6243 6.01058 43.7896 6.01752 43.8858 6.03024L43.9439 6.64117C42.8423 6.63637 41.9246 6.91608 41.191 7.48034C40.4574 8.04461 40.0878 8.77084 40.0821 9.65905C40.0788 10.1895 40.2206 10.6218 40.5077 10.9562C40.7949 11.2782 41.2139 11.4404 41.7649 11.4428C42.3295 11.4453 42.7786 11.2252 43.112 10.7825C43.4455 10.3399 43.614 9.82246 43.6179 9.23038C43.6217 8.62587 43.4939 8.07635 43.2357 7.58177L44.3119 7.29044ZM54.0031 5.63032L54.8082 5.80038C54.7933 5.88666 54.5913 6.26201 54.202 6.92648C53.8256 7.5787 53.4208 8.44048 52.9869 9.51182C52.5531 10.5708 52.271 11.6429 52.1399 12.7279L50.8183 12.6296C50.8228 11.9511 51.0695 11.0764 51.5582 10.0052C51.4342 9.99235 51.1799 9.98507 50.7938 9.98339C50.4219 9.98171 49.7331 10.0589 48.7266 10.2149C48.0151 11.6181 47.6561 12.8193 47.6497 13.8186L46.2668 13.646C46.2726 12.7701 46.6445 11.6923 47.3824 10.4126C46.6793 10.5082 45.9763 10.6532 45.2726 10.8475L45.0705 10.1249C45.0705 10.0879 45.4359 9.98466 46.1674 9.81512C46.9118 9.64569 47.4637 9.53703 47.8221 9.48927C48.9383 7.22429 49.6976 5.91378 50.0991 5.55775L50.9855 5.87619C50.9158 5.99925 50.7557 6.27612 50.5052 6.7068C49.8783 7.77733 49.4529 8.61436 49.2288 9.21783C50.4277 9.11207 51.1444 9.05968 51.3781 9.06066C51.626 9.06176 51.8326 9.06882 51.9979 9.08189C52.9747 7.10002 53.6429 5.94946 54.0031 5.63032ZM64.5737 11.0058L65.0469 11.3224C64.8519 11.6916 64.4917 12.0416 63.9661 12.3724C63.4542 12.7033 62.9848 12.8677 62.5581 12.8659C61.7453 12.8624 61.3417 12.4782 61.3463 11.7134C61.3489 11.3556 61.4547 10.9305 61.6645 10.4379L60.8956 11.1377C60.1474 11.8129 59.4972 12.2666 58.9446 12.4985C58.4062 12.7306 57.8755 12.8455 57.3519 12.8432C56.8283 12.8409 56.43 12.7096 56.1562 12.4494C55.896 12.1768 55.7676 11.8062 55.7708 11.3374C55.776 10.4739 56.1536 9.62435 56.9025 8.78871C57.6515 7.94081 58.6063 7.25413 59.7665 6.72872C60.9273 6.20331 62.0855 5.93697 63.2424 5.92968L63.2799 6.5405L62.4115 6.70328C61.1565 6.94453 60.0447 7.4331 59.0757 8.16905C58.1208 8.90505 57.6411 9.64314 57.636 10.3833C57.6314 11.1112 57.9594 11.4765 58.6205 11.4794C59.2403 11.4821 60.0073 11.0968 60.9215 10.3236C61.8356 9.55045 62.5988 8.64091 63.2114 7.59495L64.0759 8.06137C63.2121 9.59966 62.7789 10.5785 62.7763 10.9979C62.7756 11.1706 62.8363 11.3189 62.9596 11.4428C63.0965 11.5545 63.2269 11.6105 63.3509 11.6111C63.489 11.6116 63.5781 11.6059 63.6194 11.5937C63.6614 11.5816 63.7027 11.5694 63.7441 11.5572C63.7854 11.5328 63.8338 11.5021 63.8893 11.4654C63.9584 11.4287 64.0133 11.3919 64.0552 11.3551C64.1101 11.3183 64.1934 11.2631 64.3038 11.1896C64.4148 11.1161 64.5046 11.0548 64.5737 11.0058ZM91.5091 1.20491L92.4362 1.61611C91.5033 3.22806 90.5323 5.3025 89.5245 7.83938C90.1585 7.84216 90.5917 7.8687 90.826 7.91906L90.7363 8.97346C90.4464 9.05852 89.8815 9.09923 89.0416 9.09559C88.7478 9.8098 88.5722 10.3889 88.5141 10.8327C88.456 11.2765 88.405 11.7081 88.3611 12.1273C88.3308 12.5466 88.3082 12.8303 88.294 12.9782L87.137 12.9732C87.0692 12.7632 87.0363 12.5472 87.0376 12.3251C87.0428 11.5603 87.2765 10.4818 87.74 9.08992C86.9137 9.08628 85.6599 9.16718 83.9781 9.33256C83.9083 9.52963 83.734 9.89896 83.4551 10.4405C83.1762 10.9698 82.8973 11.4312 82.6197 11.8247C82.3557 12.2183 81.9948 12.6485 81.537 13.1153C81.0793 13.5821 80.6022 13.9748 80.1038 14.2933C78.6796 15.2 77.2993 15.6504 75.9635 15.6446C75.4128 15.6422 74.9589 15.486 74.6032 15.176C74.2468 14.8661 74.0699 14.4767 74.0731 14.008C74.0809 12.8237 74.8453 11.7538 76.3663 10.7982C77.901 9.83032 80.0205 9.06234 82.7237 8.49437C83.7599 5.83421 85.2041 3.94076 87.057 2.81391C85.0595 2.82987 83.4119 3.1249 82.1136 3.69905C80.8152 4.27315 80.1632 5.01048 80.1574 5.911C80.1554 6.19476 80.2026 6.44167 80.2975 6.65181C80.3924 6.84963 80.6177 7.16519 80.9734 7.59848L80.2671 8.18755C79.6628 7.8395 79.2044 7.41806 78.8907 6.92325C78.5769 6.42843 78.422 5.95281 78.4245 5.49639C78.4297 4.73153 78.8887 4.03039 79.8016 3.39286C80.7145 2.74302 81.8476 2.24837 83.1995 1.90882C84.5514 1.55701 85.9226 1.38411 87.3139 1.39018C88.0163 1.39324 88.498 1.44471 88.7594 1.54452C89.0338 1.63207 89.1707 1.80537 89.1688 2.06443C89.1675 2.31117 88.966 2.54467 88.5651 2.76499C86.8375 3.71964 85.4417 5.53936 84.3777 8.22404C85.1912 8.10422 86.4527 7.974 88.161 7.83343C88.833 6.10929 89.3715 4.83481 89.7763 4.01004C90.1946 3.17301 90.7725 2.23796 91.5091 1.20491ZM77.6246 14.375C78.134 14.3772 78.7273 14.1763 79.4052 13.7721C80.096 13.3804 80.6713 12.8648 81.1296 12.2253C81.6022 11.5735 82.007 10.6809 82.3447 9.54744C80.5112 9.81084 79.0275 10.2855 77.8939 10.9714C76.7737 11.645 76.2114 12.4136 76.2056 13.2771C76.2037 13.6225 76.3121 13.8882 76.531 14.0742C76.764 14.2726 77.1288 14.3728 77.6246 14.375ZM102.216 10.874L102.648 11.1904C102.41 11.7076 102.036 12.1439 101.524 12.4994C101.026 12.855 100.57 13.0319 100.157 13.0301C99.7574 13.0283 99.4417 12.9035 99.2093 12.6558C98.9762 12.3957 98.8613 12.0622 98.8639 11.6551C98.8664 11.248 98.9459 10.724 99.1014 10.0832C98.4481 10.9933 97.7483 11.7057 97.0013 12.2206C96.2543 12.7354 95.6255 12.9918 95.1161 12.9895C94.3453 12.9862 93.9618 12.5712 93.9669 11.7447C93.9727 10.9182 94.2962 9.80933 94.9386 8.41816C95.5951 7.01467 96.0613 6.21488 96.3382 6.01868L97.3273 6.4116C96.7572 7.2233 96.3253 8.02327 96.0309 8.81149C95.7372 9.59977 95.5887 10.1296 95.5874 10.4009C95.5855 10.66 95.6739 10.8701 95.8521 11.0313C96.0439 11.1925 96.2634 11.2736 96.5113 11.2747C97.062 11.2771 97.747 10.8298 98.5649 9.93285C99.3971 9.0236 100.246 7.6703 101.112 5.87295L102.162 6.30318C102.135 6.40171 101.813 7.11586 101.198 8.44545C100.598 9.77516 100.296 10.5757 100.295 10.8471C100.293 11.1062 100.354 11.3038 100.477 11.4401C100.614 11.5764 100.745 11.6448 100.868 11.6453C101.006 11.6459 101.109 11.6402 101.178 11.6282C101.247 11.6161 101.316 11.5918 101.385 11.555C101.455 11.5183 101.51 11.4877 101.551 11.4633C101.606 11.4388 101.668 11.3959 101.738 11.3345L101.883 11.1871C101.925 11.1626 101.98 11.1135 102.05 11.0398C102.133 10.9538 102.188 10.8985 102.216 10.874ZM117.939 10.7021L118.371 11.074C117.577 12.3289 116.672 12.9541 115.652 12.9497C115.239 12.9478 114.916 12.8477 114.683 12.6493C114.464 12.4387 114.356 12.1668 114.358 11.8338C114.36 11.4883 114.591 10.9033 115.051 10.0789C115.511 9.25432 115.756 8.62622 115.786 8.1946C115.801 7.99725 115.733 7.83661 115.583 7.71257C115.446 7.58859 115.253 7.52608 115.005 7.52504C114.757 7.52394 114.502 7.57835 114.24 7.68822C113.991 7.78583 113.742 7.95127 113.493 8.1846C113.257 8.41793 113.036 8.64518 112.827 8.86631C112.633 9.08755 112.411 9.40114 112.16 9.80714C111.923 10.2132 111.722 10.5516 111.555 10.8223C111.262 11.3267 110.844 12.0836 110.301 13.0929L109.063 12.6988C109.064 12.6618 109.296 11.9658 109.759 10.6109C110.221 9.25588 110.454 8.44886 110.456 8.18981C110.457 7.93075 110.39 7.74541 110.252 7.63381C110.116 7.50983 109.944 7.44738 109.737 7.44651C109.117 7.44379 108.252 8.13088 107.142 9.50766C106.045 10.8845 105.342 12.0596 105.033 13.0328L103.857 12.6761C103.931 12.0226 104.261 10.8521 104.851 9.16457C105.44 7.46473 105.937 6.30728 106.339 5.69225L107.268 5.99237C106.835 6.84171 106.534 7.56205 106.365 8.15343C106.196 8.7325 106.048 9.35488 105.92 10.0205C107.113 8.50831 108.112 7.45171 108.915 6.85079C109.718 6.23743 110.443 5.93223 111.09 5.93506C111.792 5.93812 112.141 6.2542 112.138 6.88335C112.136 7.13009 112.009 7.61681 111.756 8.34351C111.518 9.07032 111.328 9.64314 111.187 10.062C113.105 7.33167 114.816 5.96981 116.317 5.97635C116.688 5.97797 116.984 6.08414 117.203 6.29479C117.422 6.49314 117.53 6.79586 117.528 7.20295C117.525 7.59767 117.259 8.25654 116.73 9.17944C116.215 10.1024 115.956 10.6872 115.954 10.934C115.953 11.1684 116.007 11.3413 116.116 11.4528C116.226 11.5643 116.363 11.6204 116.528 11.6211C116.887 11.6227 117.357 11.3164 117.939 10.7021ZM126.721 11.092L127.235 11.5014C126.429 12.6698 125.578 13.2521 124.682 13.2481C124.173 13.2459 123.651 12.9475 123.118 12.3531C122.598 11.7587 122.285 11.1837 122.179 10.6281C122.095 10.7634 121.859 11.1201 121.47 11.6982C121.081 12.2764 120.802 12.7501 120.634 13.1195L119.397 12.7254C119.696 11.2094 120.056 9.77996 120.478 8.43713C120.913 7.09435 121.319 6.15243 121.695 5.61124L122.54 5.85549C122.288 6.42184 121.866 7.93121 121.272 10.3835C122.038 8.99289 122.809 7.97851 123.584 7.3404C124.36 6.68998 125.209 6.26189 126.133 6.0562L126.125 7.27749C125.134 7.31016 124.172 7.90426 123.243 9.05985C123.292 9.8619 123.55 10.5292 124.015 11.0617C124.493 11.5942 124.946 11.8615 125.373 11.8633C125.58 11.8642 126.029 11.6071 126.721 11.092ZM137.527 11.3243L138 11.6409C137.804 12.0101 137.444 12.3601 136.919 12.6909C136.407 13.0217 135.938 13.1862 135.511 13.1844C134.698 13.1808 134.294 12.7966 134.299 12.0318C134.301 11.674 134.408 11.2489 134.617 10.7564L133.849 11.4562C133.1 12.1314 132.45 12.585 131.898 12.817C131.359 13.0491 130.828 13.1639 130.305 13.1617C129.781 13.1594 129.383 13.0281 129.109 12.7678C128.849 12.4953 128.721 12.1247 128.723 11.6559C128.729 10.7924 129.106 9.9428 129.856 9.10721C130.605 8.25926 131.559 7.57263 132.72 7.04722C133.88 6.52182 135.039 6.25547 136.196 6.24819L136.233 6.859L135.364 7.02172C134.11 7.26297 132.997 7.7516 132.029 8.48755C131.073 9.22356 130.594 9.96165 130.589 10.7018C130.585 11.4296 130.913 11.795 131.574 11.7978C132.193 11.8006 132.96 11.4153 133.875 10.6421C134.788 9.86895 135.552 8.95935 136.165 7.91345L137.029 8.37982C136.165 9.91811 135.732 10.897 135.729 11.3164C135.728 11.4891 135.789 11.6374 135.913 11.7613C136.05 11.8729 136.18 11.929 136.304 11.9295C136.441 11.9302 136.531 11.9244 136.573 11.9122C136.614 11.9 136.655 11.8879 136.697 11.8757C136.738 11.8512 136.787 11.8206 136.842 11.7839C136.911 11.7471 136.966 11.7104 137.008 11.6735C137.063 11.6368 137.146 11.5816 137.257 11.5081C137.367 11.4346 137.458 11.3733 137.527 11.3243Z" fill="#f8fafc"/>
</svg>
