<svg aria-hidden="true" style="position: absolute; width: 0; height: 0; overflow: hidden;" version="1.1"
    xmlns="http://www.w3.org/2000/svg" xmlns:xlink="http://www.w3.org/1999/xlink">
    <defs>
        <symbol id="icon-instagram" viewBox="0 0 32 32">
            <path
                d="M10.24 1.92c-4.587 0-8.32 3.733-8.32 8.32v11.52c0 4.587 3.733 8.32 8.32 8.32h11.52c4.587 0 8.32-3.733 8.32-8.32v-11.52c0-4.587-3.733-8.32-8.32-8.32h-11.52zM10.24 3.2h11.52c3.895 0 7.040 3.145 7.040 7.040v11.52c0 3.895-3.145 7.040-7.040 7.040h-11.52c-3.895 0-7.040-3.145-7.040-7.040v-11.52c0-3.895 3.145-7.040 7.040-7.040zM23.68 7.040c-0.707 0-1.28 0.573-1.28 1.28v0c0 0.707 0.573 1.28 1.28 1.28v0c0.707 0 1.28-0.573 1.28-1.28v0c0-0.707-0.573-1.28-1.28-1.28v0zM16 8.96c-3.88 0-7.040 3.159-7.040 7.040s3.159 7.040 7.040 7.040c3.881 0 7.040-3.16 7.040-7.040s-3.16-7.040-7.040-7.040zM16 10.24c3.189 0 5.76 2.571 5.76 5.76s-2.571 5.76-5.76 5.76c-3.189 0-5.76-2.571-5.76-5.76s2.571-5.76 5.76-5.76z">
            </path>
        </symbol>

        <symbol id="icon-telegram" viewBox="0 0 32 32">
            <path
                d="M28.401 3.831c-0.312 0.014-0.615 0.1-0.889 0.21-0.271 0.109-1.83 0.774-4.133 1.759s-5.296 2.266-8.262 3.538c-5.934 2.542-11.765 5.044-11.765 5.044l0.042-0.016c0 0-0.352 0.118-0.709 0.366-0.178 0.124-0.37 0.285-0.527 0.519s-0.272 0.566-0.229 0.916c0.152 1.232 1.429 1.581 1.429 1.581l0.005 0.003 5.697 1.95c0.145 0.485 1.728 5.767 2.076 6.886 0.192 0.619 0.372 0.975 0.56 1.219 0.094 0.122 0.192 0.216 0.301 0.285 0.043 0.027 0.089 0.048 0.134 0.066 0.001 0 0.002-0 0.002 0 0.006 0.002 0.011 0.003 0.016 0.005l-0.015-0.004c0.010 0.004 0.021 0.011 0.031 0.015 0.020 0.007 0.033 0.007 0.059 0.012 0.652 0.228 1.192-0.195 1.192-0.195l0.023-0.017 3.5-3.246 5.68 4.429 0.071 0.032c0.994 0.441 1.893 0.195 2.391-0.21s0.694-0.927 0.694-0.927l0.021-0.055 4.174-21.754c0.107-0.487 0.122-0.907 0.021-1.287s-0.345-0.711-0.652-0.894c-0.307-0.183-0.628-0.242-0.94-0.229zM28.435 5.133c0.127-0.006 0.22 0.009 0.25 0.026s0.043 0.015 0.071 0.122c0.028 0.107 0.044 0.333-0.034 0.686l-0.003 0.008-4.15 21.628c-0.010 0.022-0.096 0.222-0.294 0.383-0.201 0.164-0.425 0.292-1.020 0.043l-6.39-4.977-1.857-1.394 10.439-12.281c0.095-0.111 0.153-0.256 0.153-0.415 0-0.354-0.287-0.64-0.64-0.64-0.006 0-0.012 0-0.017 0l0.001-0c-0.127 0.003-0.243 0.043-0.341 0.109l0.002-0.001-15.105 10.070-5.706-1.954c0 0-0.567-0.315-0.594-0.535-0.002-0.012-0.008-0.001 0.021-0.045s0.103-0.118 0.196-0.182c0.186-0.129 0.397-0.207 0.397-0.207l0.021-0.008 0.021-0.009c0 0 5.831-2.502 11.765-5.044 2.967-1.271 5.959-2.552 8.261-3.536s3.964-1.692 4.105-1.749c0.16-0.064 0.32-0.090 0.446-0.096zM21.512 12.027l-7.92 9.317c-0.011 0.014-0.023 0.029-0.034 0.044l-0.001 0.002c-0.011 0.015-0.023 0.033-0.033 0.051l-0.002 0.003c-0.042 0.071-0.072 0.154-0.083 0.243l-0 0.003c0 0.001 0 0.002 0 0.003s0 0.002 0 0.003v-0l-1.031 4.637c-0.017-0.050-0.029-0.068-0.047-0.128v-0.001c-0.328-1.052-1.821-6.035-2.027-6.724l11.18-7.454zM14.49 22.867l1.422 1.067-2.090 1.938 0.668-3.005z">
            </path>
        </symbol>
        <symbol id="chevron-up" viewBox="0 0 32 32">
            <path
                d="M15.292 9.292c0.181-0.181 0.431-0.294 0.708-0.294s0.527 0.112 0.708 0.294l12 12c0.181 0.181 0.293 0.431 0.293 0.708 0 0.553-0.448 1.001-1.001 1.001-0.276 0-0.527-0.112-0.708-0.293v0l-11.292-11.294-11.292 11.294c-0.181 0.181-0.431 0.293-0.708 0.293-0.553 0-1.001-0.448-1.001-1.001 0-0.276 0.112-0.527 0.293-0.708l12-12z">
            </path>
        </symbol>
        <symbol id="arrow-up-circle" viewBox="0 0 24 24">
            <path
                d="M23 12c0-3.037-1.232-5.789-3.222-7.778s-4.741-3.222-7.778-3.222-5.789 1.232-7.778 3.222-3.222 4.741-3.222 7.778 1.232 5.789 3.222 7.778 4.741 3.222 7.778 3.222 5.789-1.232 7.778-3.222 3.222-4.741 3.222-7.778zM21 12c0 2.486-1.006 4.734-2.636 6.364s-3.878 2.636-6.364 2.636-4.734-1.006-6.364-2.636-2.636-3.878-2.636-6.364 1.006-4.734 2.636-6.364 3.878-2.636 6.364-2.636 4.734 1.006 6.364 2.636 2.636 3.878 2.636 6.364zM13 16v-5.586l2.293 2.293c0.391 0.391 1.024 0.391 1.414 0s0.391-1.024 0-1.414l-4-4c-0.096-0.096-0.206-0.168-0.324-0.217-0.122-0.051-0.253-0.076-0.383-0.076-0.256 0-0.512 0.098-0.707 0.293l-4 4c-0.391 0.391-0.391 1.024 0 1.414s1.024 0.391 1.414 0l2.293-2.293v5.586c0 0.552 0.448 1 1 1s1-0.448 1-1z">
            </path>
        </symbol>
        <symbol id="arrow-left-to-scroll" viewBox="0 0 32 32">
            <path fill="#a90d22" style="fill: var(--color1, #a90d22)" opacity="0.5"
                d="M7.151 16.849c-0.469-0.469-0.469-1.228 0-1.697l7.637-7.637c0.469-0.469 1.228-0.469 1.697 0s0.469 1.228 0 1.697l-6.788 6.788 6.788 6.788c0.469 0.469 0.469 1.228 0 1.697s-1.228 0.469-1.697 0l-7.637-7.637zM24 17.2h-16v-2.4h16v2.4z">
            </path>
            <path fill="none" stroke="#a90d22" style="stroke: var(--color1, #a90d22)" stroke-linejoin="miter"
                stroke-linecap="butt" stroke-miterlimit="4" stroke-width="0.8"
                d="M0.4 16c0 8.616 6.984 15.6 15.6 15.6s15.6-6.984 15.6-15.6c0-8.616-6.984-15.6-15.6-15.6s-15.6 6.984-15.6 15.6z">
            </path>
        </symbol>
    </defs>
</svg>